<?xml version="1.0" encoding="utf-8"?>
<!-- Generator: Adobe Illustrator 23.0.3, SVG Export Plug-In . SVG Version: 6.00 Build 0)  -->
<svg version="1.1" id="Layer_1" xmlns="http://www.w3.org/2000/svg" xmlns:xlink="http://www.w3.org/1999/xlink" x="0px" y="0px"
	 viewBox="0 0 16 16" style="enable-background:new 0 0 16 16;" xml:space="preserve">
<style type="text/css">
	.st0{fill:#010101;}
</style>
<path class="st0" d="M8,0C3.58,0,0,3.58,0,8s3.58,8,8,8s8-3.58,8-8S12.42,0,8,0z M11.08,4.89L8,12.08
	c-0.24,0.55-0.41,0.99-1.13,0.99c-0.75,0-1.03-0.59-1.03-0.93c0-0.36,0.11-0.6,0.35-1.15l0.69-1.56L5.11,5.2
	C4.87,4.64,4.67,4.15,4.67,3.91c0-0.61,0.49-0.97,1.01-0.97c0.51,0,0.87,0.27,1.07,0.79L7.98,6.9l1.16-2.83
	c0.27-0.64,0.56-1.13,1.13-1.13c0.64,0,1.07,0.41,1.07,1.05C11.33,4.29,11.19,4.65,11.08,4.89z"/>
</svg>
