<?xml version="1.0" encoding="utf-8"?>
<!-- Generator: Adobe Illustrator 23.0.2, SVG Export Plug-In . SVG Version: 6.00 Build 0)  -->
<svg version="1.1" id="Layer_2" xmlns="http://www.w3.org/2000/svg" xmlns:xlink="http://www.w3.org/1999/xlink" x="0px" y="0px"
	 viewBox="0 0 17 493" style="enable-background:new 0 0 17 493;" xml:space="preserve">
<style type="text/css">
	.st0{fill:#38ABA4;}
	.st1{fill:#939393;}
	.st2{fill:#FFFFFF;}
</style>
<g id="Modmail_x2F_Active">
	<path class="st0" d="M8.53,376.76c0.96,0.43,2.46,0.92,4.34,0.92c0.23,0,0.43,0,0.62,0c0,0.89-0.01,1.93-0.01,2.85
		c-0.01,3.98-3.71,7.63-4.96,7.96c-1.27-0.33-5.02-3.97-4.98-7.97l-0.03-2.83h0.61C6.03,377.69,7.56,377.19,8.53,376.76 M8.53,374.5
		c0,0-1.77,1.19-4.4,1.19s-2.63,0-2.63,0l0.04,4.85c-0.04,5.23,4.95,9.96,6.99,9.96c2.04,0,6.94-4.73,6.96-9.96
		c0-2.09,0.01-4.85,0.01-4.85s-0.02-0.01-2.63-0.01C10.26,375.68,8.53,374.5,8.53,374.5L8.53,374.5z"/>
	<path class="st0" d="M4.42,381.35c-0.03,3.06,2.9,5.84,4.09,5.84v-9.38c0,0-1.03,0.7-2.58,0.7s-1.54,0-1.54,0L4.42,381.35z"/>
</g>
<g id="Modmail">
	<path class="st1" d="M8.53,359.76c0.96,0.43,2.46,0.92,4.34,0.92c0.23,0,0.43,0,0.62,0c0,0.89-0.01,1.93-0.01,2.85
		c-0.01,3.98-3.71,7.63-4.96,7.96c-1.27-0.33-5.02-3.97-4.98-7.97l-0.03-2.83h0.61C6.03,360.69,7.56,360.19,8.53,359.76 M8.53,357.5
		c0,0-1.77,1.19-4.4,1.19s-2.63,0-2.63,0l0.04,4.85c-0.04,5.23,4.95,9.96,6.99,9.96c2.04,0,6.94-4.73,6.96-9.96
		c0-2.09,0.01-4.85,0.01-4.85s-0.02-0.01-2.63-0.01C10.26,358.68,8.53,357.5,8.53,357.5L8.53,357.5z"/>
	<path class="st1" d="M4.42,364.35c-0.03,3.06,2.9,5.84,4.09,5.84v-9.38c0,0-1.03,0.7-2.58,0.7s-1.54,0-1.54,0L4.42,364.35z"/>
</g>
<polygon id="Expand" class="st1" points="15,345.5 9.5,345.5 9.5,340 5.5,340 5.5,345.5 0,345.5 0,349.5 5.5,349.5 5.5,355 9.5,355 
	9.5,349.5 15,349.5 "/>
<g id="Collapse">
	<path class="st1" d="M0,328.5h15v4H0V328.5z"/>
</g>
<polygon id="Incoming_Message" class="st0" points="12.26,314.71 4.54,307 1,310.54 8.71,318.26 4.97,322 16,322 16,310.97 "/>
<polygon id="Outgoing_Message" class="st0" points="4.74,297.29 12.46,305 16,301.46 8.29,293.74 12.03,290 1,290 1,301.03 "/>
<path id="Unarchive" class="st1" d="M16.5,275.52l-1.82-3.02H2.32l-1.82,3.02v12.98h16L16.5,275.52z M9.72,285.67H7.28l0-5.3H4.71
	l3.79-3.79l3.79,3.79H9.72L9.72,285.67z M1.43,275.52l1.22-2.27h11.7l1.21,2.27H1.43z"/>
<g id="Mark_Read">
	<path class="st1" d="M4.95,266.5c-1.84-1.47-3.68-3.43-4.49-4.32v8.76L4.95,266.5z"/>
	<path class="st1" d="M8.44,255.5c-1.73,0-5.74,4.07-7.43,5.95h14.85C14.18,259.57,10.17,255.5,8.44,255.5z"/>
	<path class="st1" d="M16.54,262.04c-0.72,0.8-2.67,2.92-4.61,4.46l4.61,4.57V262.04z"/>
	<path class="st1" d="M11.2,267.05c-1.03,0.74-2.01,1.25-2.77,1.25c-0.75,0-1.74-0.51-2.77-1.25l-4.5,4.45H15.7L11.2,267.05z"/>
</g>
<path id="Checked" class="st0" d="M13.41,239H3.59C2.16,239,1,240.16,1,241.59v9.81c0,1.43,1.16,2.59,2.59,2.59h9.81
	c1.43,0,2.59-1.16,2.59-2.59v-9.81C16,240.16,14.84,239,13.41,239z M7.06,250.65l-4.23-4.23l1.33-1.33l2.9,2.9l5.86-5.86l1.33,1.33
	L7.06,250.65z"/>
<path id="Unchecked" class="st1" d="M13.41,223.88c0.4,0,0.72,0.32,0.72,0.72v9.81c0,0.4-0.32,0.72-0.72,0.72H3.59
	c-0.4,0-0.72-0.32-0.72-0.72v-9.81c0-0.4,0.32-0.72,0.72-0.72H13.41 M13.41,222H3.59C2.16,222,1,223.16,1,224.59v9.81
	c0,1.43,1.16,2.59,2.59,2.59h9.81c1.43,0,2.59-1.16,2.59-2.59v-9.81C16,223.16,14.84,222,13.41,222L13.41,222z"/>
<path id="Unsaved" class="st1" d="M8.5,208.34l1.13,2.25l0.35,0.7l0.78,0.11l2.52,0.36l-1.82,1.75l-0.56,0.54l0.13,0.77l0.43,2.47
	l-2.25-1.17l-0.7-0.36l-0.7,0.36l-2.25,1.17l0.43-2.47l0.13-0.77l-0.56-0.54l-1.82-1.75l2.52-0.36l0.78-0.11l0.35-0.7L8.5,208.34
	 M8.5,205l-2.47,4.94l-5.53,0.79l4,3.84L3.56,220l4.94-2.56l4.94,2.56l-0.94-5.43l4-3.84l-5.53-0.79L8.5,205L8.5,205z"/>
<polygon id="Saved_x2F_Active" class="st0" points="8.5,188 10.97,192.94 16.5,193.73 12.5,197.57 13.44,203 8.5,200.44 3.56,203 
	4.5,197.57 0.5,193.73 6.03,192.94 "/>
<polygon id="Saved" class="st1" points="8.5,171 10.97,175.94 16.5,176.73 12.5,180.57 13.44,186 8.5,183.44 3.56,186 4.5,180.57 
	0.5,176.73 6.03,175.94 "/>
<path id="Drafts_Active" class="st0" d="M8.51,119.5c0,0-0.01,0-0.01,0c-4.42,0-8,3.58-8,8c0,4.42,3.58,8,8,8
	c2.21,0,4.21-0.89,5.66-2.34c1.45-1.45,2.34-3.45,2.34-5.66C16.5,123.09,12.93,119.51,8.51,119.5z M13.3,132.23l-4.77-4.76H8.5
	v-6.72c3.72,0,6.75,3.03,6.75,6.75C15.25,129.34,14.5,131.02,13.3,132.23z"/>
<path id="Drafts" class="st1" d="M8.51,102.5c0,0-0.01,0-0.01,0c-4.42,0-8,3.58-8,8c0,4.42,3.58,8,8,8c2.21,0,4.21-0.89,5.66-2.34
	c1.45-1.45,2.34-3.45,2.34-5.66C16.5,106.09,12.93,102.51,8.51,102.5z M13.3,115.23l-4.77-4.76H8.5v-6.72
	c3.72,0,6.75,3.03,6.75,6.75C15.25,112.34,14.5,114.02,13.3,115.23z"/>
<g id="Inbox_Hover">
	<g>
		<path class="st0" d="M4.97,93.53c-1.83-1.46-3.67-3.42-4.47-4.3v8.72L4.97,93.53z"/>
		<path class="st0" d="M8.44,94.43c1.72,0,5.71-4.05,7.39-5.93H1.04C2.72,90.37,6.71,94.43,8.44,94.43z"/>
		<path class="st0" d="M16.5,89.08c-0.72,0.8-2.66,2.9-4.59,4.44l4.59,4.55V89.08z"/>
		<path class="st0" d="M11.19,94.07c-1.02,0.73-2,1.24-2.76,1.24c-0.75,0-1.73-0.51-2.76-1.24L1.2,98.5h14.47L11.19,94.07z"/>
	</g>
</g>
<g id="Inbox_x2F_Read">
	<path class="st1" d="M4.97,76.53c-1.83-1.46-3.67-3.42-4.47-4.3v8.72L4.97,76.53z"/>
	<path class="st1" d="M8.44,77.43c1.72,0,5.71-4.05,7.39-5.93H1.04C2.72,73.37,6.71,77.43,8.44,77.43z"/>
	<path class="st1" d="M16.5,72.08c-0.72,0.8-2.66,2.9-4.59,4.44l4.59,4.55V72.08z"/>
	<path class="st1" d="M11.19,77.07c-1.02,0.73-2,1.24-2.76,1.24c-0.75,0-1.73-0.51-2.76-1.24L1.2,81.5h14.47L11.19,77.07z"/>
</g>
<g id="New_Message_Hover">
	
		<rect x="0.95" y="57.51" transform="matrix(0.7071 -0.7071 0.7071 0.7071 -39.979 23.2735)" class="st0" width="14.3" height="4.76"/>
	<path class="st0" d="M15.74,55.63l-3.37-3.37l0.11-0.11c0.87-0.87,2.29-0.87,3.16,0l0.21,0.21c0.87,0.87,0.87,2.29,0,3.16
		L15.74,55.63z"/>
	<polygon class="st0" points="3.87,67.5 0.5,67.5 0.5,64.13 	"/>
</g>
<g id="New_Message">
	
		<rect x="0.95" y="40.51" transform="matrix(0.7071 -0.7071 0.7071 0.7071 -27.9582 18.2943)" class="st1" width="14.3" height="4.76"/>
	<path class="st1" d="M15.74,38.63l-3.37-3.37l0.11-0.11c0.87-0.87,2.29-0.87,3.16,0l0.21,0.21c0.87,0.87,0.87,2.29,0,3.16
		L15.74,38.63z"/>
	<polygon class="st1" points="3.87,50.5 0.5,50.5 0.5,47.13 	"/>
</g>
<path id="Archive_Active" class="st0" d="M16.5,156.52l-1.82-3.02H2.32l-1.82,3.02v12.98h16L16.5,156.52z M8.5,166.67l-3.79-3.79
	h2.57l0-5.3h2.43l0,5.3h2.57L8.5,166.67z M1.43,156.52l1.22-2.27h11.7l1.21,2.27H1.43z"/>
<path id="Archive" class="st1" d="M16.5,139.52l-1.82-3.02H2.32l-1.82,3.02v12.98h16L16.5,139.52z M8.5,149.67l-3.79-3.79h2.57
	l0-5.3h2.43l0,5.3h2.57L8.5,149.67z M1.43,139.52l1.22-2.27h11.7l1.21,2.27H1.43z"/>
<path id="Settings" class="st1" d="M13.99,30.79l-0.79-1.35c0.5-0.57,0.88-1.22,1.14-1.92l1.59,0c0.18,0,0.34-0.12,0.38-0.3
	c0.27-1.15,0.26-2.33,0-3.45c-0.04-0.17-0.2-0.3-0.38-0.3l-1.59,0c-0.25-0.7-0.63-1.36-1.13-1.92l0.79-1.34
	c0.09-0.15,0.06-0.35-0.07-0.47c-0.89-0.81-1.95-1.39-3.05-1.73c-0.17-0.05-0.36,0.02-0.45,0.17l-0.8,1.34
	c-0.75-0.14-1.51-0.14-2.26,0l-0.79-1.34c-0.09-0.15-0.28-0.23-0.45-0.17c-1.12,0.34-2.17,0.92-3.06,1.72
	c-0.13,0.12-0.16,0.32-0.07,0.47l0.79,1.35c-0.5,0.57-0.88,1.22-1.14,1.92l-1.59,0c-0.18,0-0.34,0.12-0.38,0.3
	c-0.27,1.15-0.26,2.33,0,3.45c0.04,0.17,0.2,0.3,0.38,0.3l1.59,0c0.25,0.7,0.63,1.36,1.13,1.92l-0.8,1.34
	c-0.09,0.15-0.06,0.35,0.07,0.47c0.89,0.81,1.95,1.39,3.05,1.73c0.17,0.05,0.36-0.02,0.45-0.17l0.8-1.34c0.75,0.14,1.51,0.14,2.26,0
	l0.79,1.35c0.09,0.15,0.28,0.23,0.45,0.17c1.12-0.34,2.17-0.92,3.06-1.72C14.05,31.14,14.08,30.94,13.99,30.79z M7.21,27.68
	c-1.23-0.7-1.65-2.25-0.94-3.45c0.71-1.2,2.3-1.62,3.53-0.92s1.65,2.25,0.94,3.45C10.02,27.97,8.44,28.38,7.21,27.68z"/>
<path id="Refresh" class="st2" d="M12.43,4.29c-1.07-1-2.46-1.55-3.94-1.55c-2.65,0-4.95,1.82-5.58,4.35
	C2.87,7.27,2.71,7.4,2.52,7.4H0.55c-0.26,0-0.45-0.23-0.4-0.49C0.89,2.98,4.35,0,8.5,0c2.28,0,4.35,0.9,5.87,2.35l1.22-1.22
	C16.11,0.61,17,0.98,17,1.71v4.59c0,0.45-0.37,0.82-0.82,0.82h-4.59c-0.73,0-1.1-0.89-0.58-1.4L12.43,4.29z M0.82,9.87h4.59
	c0.73,0,1.1,0.89,0.58,1.4l-1.43,1.43c1.07,1,2.46,1.55,3.94,1.55c2.65,0,4.95-1.82,5.58-4.35c0.05-0.18,0.21-0.31,0.4-0.31h1.96
	c0.26,0,0.45,0.23,0.4,0.49C16.11,14.02,12.65,17,8.5,17c-2.28,0-4.35-0.9-5.87-2.35L1.4,15.87C0.89,16.39,0,16.02,0,15.29v-4.59
	C0,10.24,0.37,9.87,0.82,9.87z"/>
</svg>
